<?xml version="1.0" encoding="UTF-8" standalone="no"?>
<!DOCTYPE svg PUBLIC "-//W3C//DTD SVG 1.1//EN" "http://www.w3.org/Graphics/SVG/1.1/DTD/svg11.dtd">
<svg width="100%" height="100%" viewBox="0 0 24 24" version="1.1" xmlns="http://www.w3.org/2000/svg" xmlns:xlink="http://www.w3.org/1999/xlink" xml:space="preserve" xmlns:serif="http://www.serif.com/" style="fill-rule:evenodd;clip-rule:evenodd;stroke-linejoin:round;stroke-miterlimit:2;">
    <g>
        <path d="M12.594,23.258L12.582,23.26L12.511,23.295L12.491,23.299L12.477,23.295L12.406,23.259C12.395,23.256 12.387,23.258 12.382,23.265L12.378,23.275L12.361,23.703L12.366,23.723L12.376,23.736L12.48,23.81L12.495,23.814L12.507,23.81L12.611,23.736L12.623,23.72L12.627,23.703L12.61,23.276C12.607,23.265 12.602,23.259 12.594,23.258M12.858,23.145L12.844,23.147L12.66,23.24L12.65,23.25L12.647,23.261L12.665,23.691L12.67,23.703L12.678,23.711L12.879,23.803C12.892,23.806 12.901,23.804 12.908,23.795L12.912,23.781L12.878,23.167C12.875,23.154 12.868,23.147 12.858,23.145M12.143,23.147C12.134,23.141 12.122,23.144 12.116,23.153L12.11,23.167L12.076,23.781C12.077,23.793 12.082,23.801 12.093,23.805L12.108,23.803L12.309,23.71L12.319,23.702L12.322,23.691L12.34,23.261L12.337,23.249L12.327,23.239L12.143,23.147Z" style="fill:none;"/>
        <g transform="matrix(0.707107,-0.707107,0.707107,0.707107,-4.97056,12)">
            <path d="M9,5C9,3.903 9.903,3 11,3L13,3C14.097,3 15,3.903 15,5L15,9L19,9C20.097,9 21,9.903 21,11L21,13C21,14.097 20.097,15 19,15L15,15L15,19C15,20.097 14.097,21 13,21L11,21C9.903,21 9,20.097 9,19L9,15L5,15C3.903,15 3,14.097 3,13L3,11C3,9.903 3.903,9 5,9L9,9L9,5Z" style="fill:rgb(238,0,11);"/>
        </g>
    </g>
</svg>
